<?xml version="1.0" standalone="no"?>
<!DOCTYPE svg PUBLIC "-//W3C//DTD SVG 20010904//EN" "http://www.w3.org/TR/2001/REC-SVG-20010904/DTD/svg10.dtd">
<svg version="1.0" xmlns="http://www.w3.org/2000/svg" width="4000.000000pt" height="4000.000000pt"
        viewBox="0 0 4000.000000 4000.000000" preserveAspectRatio="xMidYMid meet">

        <g transform="translate(0.000000,4000.000000) scale(0.1320,-0.13200)" fill="#804dee" stroke="none">
                <path d="M17162 28138 c-148 -216 -382 -558 -520 -760 -139 -202 -252 -371
-252 -377 0 -14 7096 -15 7105 -2 3 5 -17 42 -44 83 -26 41 -82 128 -123 193
-41 66 -126 201 -188 300 -62 99 -139 221 -170 270 -337 536 -405 643 -414
662 l-11 23 -2557 0 -2557 0 -269 -392z m3716 -392 c1 -252 -2 -432 -7 -435
-5 -3 -411 -4 -903 -1 l-893 5 -3 420 c-1 231 0 426 3 433 3 10 189 12 902 10
l898 -3 3 -429z" />
                <path d="M25860 27568 c-74 -172 -157 -367 -185 -433 -29 -66 -50 -123 -48
-127 2 -5 634 -8 1404 -8 1108 0 1399 3 1399 12 0 7 -39 112 -86 233 -125 320
-168 430 -204 525 -18 47 -37 91 -43 98 -7 9 -231 12 -1057 12 l-1047 0 -133
-312z" />
                <path d="M12282 27563 c-5 -10 -44 -126 -86 -258 -42 -132 -81 -250 -86 -262
-5 -11 -6 -24 -3 -27 4 -3 429 -6 946 -6 l940 0 -6 33 c-3 17 -32 145 -65 282
l-58 250 -787 3 c-741 2 -787 1 -795 -15z" />
                <path d="M10877 26754 c-222 -35 -410 -100 -605 -211 -139 -78 -233 -152 -367
-287 -271 -273 -429 -600 -481 -990 -13 -104 -15 -282 -12 -1420 l3 -1301
4245 -5 c4235 -5 4245 -5 4263 15 10 11 57 79 104 150 478 724 1186 1327 1968
1675 28 12 73 32 100 45 55 25 240 93 349 130 239 79 550 151 801 184 44 6
121 16 170 23 126 17 787 17 920 0 316 -41 628 -102 790 -153 228 -71 454
-152 575 -206 54 -24 351 -171 385 -191 17 -9 57 -32 90 -51 95 -54 340 -218
455 -305 430 -326 783 -702 1083 -1153 l122 -183 2377 0 2378 0 0 1338 c0
1413 0 1412 -46 1602 -73 303 -226 572 -454 800 -144 144 -266 235 -431 319
-180 92 -345 145 -554 177 -134 20 -18096 19 -18228 -2z" />
                <path d="M21695 23124 c-256 -26 -359 -42 -515 -80 -440 -109 -845 -317 -1213
-624 -36 -30 -66 -58 -66 -62 -1 -5 886 -8 1969 -8 1084 0 1970 3 1969 8 0 4
-29 32 -65 62 -449 379 -973 612 -1546 685 -119 16 -451 27 -533 19z" />
                <path d="M27395 21889 c-740 -68 -1266 -329 -1566 -777 -185 -277 -274 -553
-314 -972 -57 -606 60 -1172 326 -1570 91 -137 283 -326 424 -419 398 -261
887 -381 1556 -381 389 0 638 30 928 112 638 180 1037 575 1209 1193 18 65 26
103 51 230 38 194 50 681 22 885 -42 316 -98 514 -206 732 -91 184 -175 298
-328 445 -184 178 -485 345 -742 413 -16 5 -55 15 -85 23 -139 38 -332 70
-525 87 -129 12 -620 11 -750 -1z m500 -839 c532 -50 818 -340 901 -910 18
-126 21 -499 4 -610 -31 -205 -66 -325 -136 -461 -122 -237 -331 -384 -618
-435 -94 -16 -359 -19 -456 -4 -448 69 -719 339 -815 812 -33 168 -47 443 -31
633 51 595 345 923 872 974 128 12 157 12 279 1z" />
                <path d="M10622 21831 c2 -5 56 -73 121 -151 l117 -142 0 -1700 0 -1701 -77
-96 c-43 -52 -97 -117 -120 -145 -24 -27 -43 -53 -43 -58 0 -4 374 -8 830 -8
555 0 830 3 830 10 0 6 -49 71 -110 145 l-110 134 0 1718 0 1718 110 135 c61
74 110 138 110 142 0 4 -374 8 -831 8 -485 0 -829 -4 -827 -9z" />
                <path d="M13740 21833 c0 -5 36 -56 79 -114 44 -59 95 -130 115 -159 l36 -52
0 -1680 c0 -1257 -3 -1685 -12 -1701 -6 -12 -56 -77 -110 -145 -55 -68 -102
-130 -105 -138 -4 -12 98 -14 685 -14 380 0 693 3 695 8 3 4 -49 72 -114 151
l-119 145 0 1019 c0 602 4 1017 9 1015 5 -1 102 -104 217 -228 114 -124 282
-306 373 -404 91 -99 218 -236 282 -305 201 -218 996 -1079 1148 -1244 l145
-157 445 2 446 3 3 1854 2 1854 33 37 c17 20 57 67 87 105 30 38 70 85 88 106
17 20 32 39 32 43 0 3 -313 6 -695 6 -382 0 -695 -3 -695 -6 0 -3 50 -67 110
-142 l110 -137 0 -1010 c0 -985 0 -1009 -19 -990 -10 11 -144 162 -297 335
-154 173 -403 455 -554 625 -422 475 -909 1024 -1049 1182 l-126 142 -622 1
c-343 0 -623 -3 -623 -7z" />
                <path d="M19717 21834 c-3 -3 18 -37 46 -76 29 -38 80 -109 114 -157 l63 -86
0 -1691 0 -1691 -114 -144 c-63 -79 -112 -147 -109 -151 6 -11 1383 -10 1383
0 0 5 -15 26 -33 48 -18 21 -72 87 -120 147 l-87 107 0 1009 c0 597 4 1012 9
1015 5 4 27 -13 48 -37 53 -61 482 -525 573 -622 42 -44 102 -109 135 -145 53
-59 847 -919 1125 -1219 63 -68 153 -166 199 -217 l85 -94 448 0 448 0 0 1854
0 1853 38 44 c68 79 202 247 202 253 0 3 -313 6 -695 6 -382 0 -695 -2 -695
-5 0 -3 52 -68 115 -146 l115 -141 0 -998 c0 -549 -3 -1001 -7 -1003 -5 -3
-150 155 -323 351 -797 899 -977 1102 -1044 1177 -88 98 -206 230 -266 300
-25 29 -99 112 -165 186 -66 74 -149 167 -184 207 l-63 72 -617 0 c-340 0
-620 -3 -624 -6z" />
                <path d="M20017 17184 c-3 -4 27 -35 68 -69 403 -343 902 -577 1415 -664 399
-68 814 -51 1200 48 122 32 293 86 345 110 11 5 40 18 65 28 102 40 353 174
464 246 159 104 391 288 379 301 -8 8 -3928 8 -3936 0z" />
                <path d="M9410 16023 c0 -821 3 -1016 15 -1101 68 -478 302 -873 690 -1165 93
-69 339 -198 450 -236 94 -31 211 -58 326 -75 96 -14 1002 -16 9101 -16 6236
0 9020 3 9078 11 247 30 489 113 695 237 106 64 249 179 342 275 233 241 376
509 455 854 22 97 22 104 25 1156 l4 1057 -2678 0 -2678 -1 -135 -131 c-388
-376 -843 -687 -1315 -898 -27 -12 -68 -30 -90 -40 -82 -37 -195 -79 -355
-133 -241 -81 -425 -127 -680 -171 -136 -23 -199 -31 -442 -56 -53 -5 -205
-10 -337 -10 -813 0 -1587 201 -2285 595 -339 191 -659 431 -942 707 l-141
138 -4551 0 -4552 0 0 -997z" />
        </g>
</svg>